<?xml version="1.0" encoding="UTF-8"?>
<svg version="1.1" xmlns="http://www.w3.org/2000/svg" width="368" height="368">
<path d="M0 0 C1.24907135 0.00081573 1.24907135 0.00081573 2.52337646 0.00164795 C16.53199061 0.04355478 29.97174256 1.02647511 43.625 4.375 C44.48109863 4.58398926 45.33719727 4.79297852 46.21923828 5.00830078 C76.94888427 12.81497583 104.79093329 28.41647266 127.625 50.375 C128.14771484 50.86661621 128.67042969 51.35823242 129.20898438 51.86474609 C161.50754411 82.33108993 183.55050316 127.17852007 184.91447449 171.9138031 C184.99428334 175.85955823 185.00973464 179.80353607 185 183.75 C184.99918427 184.99907135 184.99918427 184.99907135 184.99835205 186.27337646 C184.95644522 200.28199061 183.97352489 213.72174256 180.625 227.375 C180.41601074 228.23109863 180.20702148 229.08719727 179.99169922 229.96923828 C172.18502417 260.69888427 156.58352734 288.54093329 134.625 311.375 C134.13338379 311.89771484 133.64176758 312.42042969 133.13525391 312.95898438 C102.66891007 345.25754411 57.82147993 367.30050316 13.0861969 368.66447449 C9.14044177 368.74428334 5.19646393 368.75973464 1.25 368.75 C0.41728577 368.74945618 -0.41542847 368.74891235 -1.27337646 368.74835205 C-15.28199061 368.70644522 -28.72174256 367.72352489 -42.375 364.375 C-43.23109863 364.16601074 -44.08719727 363.95702148 -44.96923828 363.74169922 C-75.69888427 355.93502417 -103.54093329 340.33352734 -126.375 318.375 C-126.89771484 317.88338379 -127.42042969 317.39176758 -127.95898438 316.88525391 C-160.25754411 286.41891007 -182.30050316 241.57147993 -183.66447449 196.8361969 C-183.74428334 192.89044177 -183.75973464 188.94646393 -183.75 185 C-183.74945618 184.16728577 -183.74891235 183.33457153 -183.74835205 182.47662354 C-183.70644522 168.46800939 -182.72352489 155.02825744 -179.375 141.375 C-179.16601074 140.51890137 -178.95702148 139.66280273 -178.74169922 138.78076172 C-170.93502417 108.05111573 -155.33352734 80.20906671 -133.375 57.375 C-132.88338379 56.85228516 -132.39176758 56.32957031 -131.88525391 55.79101562 C-97.73133904 19.58311797 -49.56742404 -0.12226672 0 0 Z " fill="#FDFEFE" transform="translate(183.375,-0.375)"/>
<path d="M0 0 C8.13423616 6.90451113 15.01615639 13.49181609 20 23 C20.48726562 23.89976562 20.97453125 24.79953125 21.4765625 25.7265625 C21.99992188 26.72429687 22.52328125 27.72203125 23.0625 28.75 C23.54847656 29.67296875 24.03445313 30.5959375 24.53515625 31.546875 C28.3598444 40.56293987 29.52842698 48.99772041 29.4375 58.75 C29.42614014 60.46243896 29.42614014 60.46243896 29.41455078 62.20947266 C29.03465972 81.73920071 21.61411663 99.66385723 7.53759766 113.43017578 C-1.28353929 121.46914295 -1.28353929 121.46914295 -6 122 C-6.66 121.67 -7.32 121.34 -8 121 C-9.87056791 120.7724985 -11.74685958 120.59037189 -13.625 120.4375 C-14.62789063 120.35371094 -15.63078125 120.26992187 -16.6640625 120.18359375 C-17.43492187 120.12300781 -18.20578125 120.06242188 -19 120 C-18.75902389 118.10661626 -18.5174816 116.21330324 -18.2734375 114.3203125 C-18.10378955 112.88072843 -17.95843569 111.43778801 -17.8515625 109.9921875 C-17.45373414 105.00986087 -16.31970766 100.41653322 -14.9375 95.625 C-13.1611595 89.39920803 -12.21912122 83.47745348 -13 77 C-14.03233596 75.74403423 -14.03233596 75.74403423 -16.26904297 75.88647461 C-17.25018066 75.89171143 -18.23131836 75.89694824 -19.2421875 75.90234375 C-20.30824219 75.90556641 -21.37429688 75.90878906 -22.47265625 75.91210938 C-23.59542969 75.92048828 -24.71820313 75.92886719 -25.875 75.9375 C-27.54755859 75.94426758 -27.54755859 75.94426758 -29.25390625 75.95117188 C-31.3266708 75.95992299 -33.39942836 75.97071562 -35.47216797 75.98413086 C-39.46217944 76.00917922 -43.43043541 75.9255951 -47.41796875 75.78125 C-48.67158203 75.73613281 -49.92519531 75.69101563 -51.21679688 75.64453125 C-52.52712891 75.59683594 -53.83746094 75.54914063 -55.1875 75.5 C-56.52278468 75.45177374 -57.85807112 75.40359609 -59.19335938 75.35546875 C-62.4622572 75.237458 -65.73113618 75.1189483 -69 75 C-69.30486328 75.77504883 -69.60972656 76.55009766 -69.92382812 77.34863281 C-70.97059371 79.92755165 -72.15879451 82.31293149 -73.5 84.75 C-73.9228125 85.52859375 -74.345625 86.3071875 -74.78125 87.109375 C-76 89 -76 89 -78 90 C-78.04898438 89.24074219 -78.09796875 88.48148437 -78.1484375 87.69921875 C-78.22320312 86.70535156 -78.29796875 85.71148437 -78.375 84.6875 C-78.47941406 83.20830078 -78.47941406 83.20830078 -78.5859375 81.69921875 C-78.83865472 78.78471567 -78.83865472 78.78471567 -81 76 C-83.77811749 75.54930246 -83.77811749 75.54930246 -87.03125 75.63671875 C-88.23394531 75.63736328 -89.43664062 75.63800781 -90.67578125 75.63867188 C-92.56876953 75.6628418 -92.56876953 75.6628418 -94.5 75.6875 C-95.76199219 75.68427734 -97.02398437 75.68105469 -98.32421875 75.67773438 C-104.75175925 75.22114463 -104.75175925 75.22114463 -110 78 C-110.67940467 80.42715206 -110.67940467 80.42715206 -111.125 83.125 C-111.29257813 84.03507812 -111.46015625 84.94515625 -111.6328125 85.8828125 C-111.75398437 86.58148438 -111.87515625 87.28015625 -112 88 C-114 87 -114 87 -114.81640625 85.14453125 C-115.06261719 84.37496094 -115.30882812 83.60539062 -115.5625 82.8125 C-115.81128906 82.05582031 -116.06007812 81.29914063 -116.31640625 80.51953125 C-118.23967778 73.43090189 -118.18341106 66.47807536 -118.1875 59.1875 C-118.19974609 58.04990234 -118.21199219 56.91230469 -118.22460938 55.74023438 C-118.25270226 39.51191211 -113.05565185 23.50618179 -101.64453125 11.52734375 C-100.77183594 10.69332031 -99.89914063 9.85929687 -99 9 C-98.06542969 8.1028125 -97.13085938 7.205625 -96.16796875 6.28125 C-70.52453051 -17.81334164 -28.68495929 -22.78664605 0 0 Z " fill="#FB8382" transform="translate(330,106)"/>
<path d="M0 0 C7.26 0 14.52 0 22 0 C22.20496094 1.79308594 22.40992188 3.58617187 22.62109375 5.43359375 C22.89300216 7.76825562 23.1651499 10.10288962 23.4375 12.4375 C23.57220703 13.62150391 23.70691406 14.80550781 23.84570312 16.02539062 C23.97783203 17.15009766 24.10996094 18.27480469 24.24609375 19.43359375 C24.36654053 20.47572021 24.4869873 21.51784668 24.61108398 22.59155273 C24.75005939 24.94517295 24.75005939 24.94517295 26 26 C26.38333496 25.28344238 26.76666992 24.56688477 27.16162109 23.82861328 C28.89572149 20.59208116 30.6352865 17.35851814 32.375 14.125 C32.97828125 12.99707031 33.5815625 11.86914062 34.203125 10.70703125 C34.78320312 9.63066406 35.36328125 8.55429688 35.9609375 7.4453125 C36.49509277 6.45031738 37.02924805 5.45532227 37.57958984 4.43017578 C39 2 39 2 41 0 C43.15478516 -0.22705078 43.15478516 -0.22705078 45.7890625 -0.1953125 C46.73007812 -0.18886719 47.67109375 -0.18242187 48.640625 -0.17578125 C49.62546875 -0.15902344 50.6103125 -0.14226562 51.625 -0.125 C52.61757813 -0.11597656 53.61015625 -0.10695312 54.6328125 -0.09765625 C57.08878134 -0.07404116 59.54427168 -0.04110799 62 0 C61.54325258 2.49484388 61.08627348 4.98964464 60.62890625 7.484375 C60.18381689 9.97245217 59.75357277 12.45991079 59.33984375 14.953125 C57.90809499 23.48878041 56.15516763 31.84449968 53.96484375 40.21875 C52.88351542 44.45650637 51.94875398 48.73060708 51 53 C44.73 53 38.46 53 32 53 C32.66 50.03 33.32 47.06 34 44 C34.37308092 42.03297146 34.73203063 40.06315468 35.0703125 38.08984375 C35.24433594 37.08115234 35.41835938 36.07246094 35.59765625 35.03320312 C35.77167969 34.01162109 35.94570313 32.99003906 36.125 31.9375 C36.30675781 30.88111328 36.48851562 29.82472656 36.67578125 28.73632812 C37.11913442 26.15787944 37.56049933 23.57910764 38 21 C37.43152344 22.08796875 36.86304688 23.1759375 36.27734375 24.296875 C32.12799334 32.20409363 27.91737642 40.02621234 23.3125 47.6796875 C21.88101054 50.03724009 21.88101054 50.03724009 21 53 C17.04 53 13.08 53 9 53 C7.05923286 41.66054925 5.49857398 30.50158589 5 19 C2.65967995 27.93360749 0.5371401 36.84389096 -1.0480957 45.9453125 C-1.90534738 50.81069476 -1.90534738 50.81069476 -3 53 C-5.31 53 -7.62 53 -10 53 C-9.32012025 45.7857204 -8.07117283 38.78493748 -6.625 31.6875 C-6.41617188 30.63626953 -6.20734375 29.58503906 -5.9921875 28.50195312 C-4.72885376 22.23535558 -3.29838387 16.04244009 -1.66162109 9.86254883 C-0.91086103 6.61433414 -0.47147724 3.30034067 0 0 Z " fill="#0D2EA6" transform="translate(224,186)"/>
<path d="M0 0 C1.18891846 0.00193359 1.18891846 0.00193359 2.40185547 0.00390625 C8.38313001 0.10177943 13.70065551 0.97006313 19.25 3.3125 C20.82886569 9.26360916 19.36567304 14.34036785 18.25 20.3125 C13.3 20.3125 8.35 20.3125 3.25 20.3125 C2.755 12.8875 2.755 12.8875 2.25 5.3125 C0.6103125 5.869375 0.6103125 5.869375 -1.0625 6.4375 C-1.67738281 6.64632812 -2.29226562 6.85515625 -2.92578125 7.0703125 C-7.50307366 10.18718399 -8.64315274 16.63003935 -9.9375 21.75 C-10.11112061 22.43650635 -10.28474121 23.1230127 -10.46362305 23.83032227 C-12.1247919 30.97326677 -12.36823685 38.00514317 -11.75 45.3125 C-10.70296435 46.56926839 -10.70296435 46.56926839 -8.375 46.5625 C-5.77365976 46.54839756 -5.77365976 46.54839756 -4.19140625 45.12109375 C-2.40401006 42.87837171 -1.81497858 40.88408812 -1.0625 38.125 C-0.4128125 35.7428125 -0.4128125 35.7428125 0.25 33.3125 C5.53 33.3125 10.81 33.3125 16.25 33.3125 C14.33492813 48.27399897 14.33492813 48.27399897 11.515625 50.97265625 C9.40151324 51.72242844 7.47526897 52.05925111 5.25 52.3125 C4.1775 52.704375 3.105 53.09625 2 53.5 C-7.34469056 55.52468295 -16.2498094 54.9079596 -24.75 50.3125 C-28.07729007 47.55328384 -30.01743986 44.5857675 -30.75 40.3125 C-31.88017229 19.20870582 -31.88017229 19.20870582 -25 10.5625 C-17.76832653 2.84752162 -10.52474138 -0.07065067 0 0 Z " fill="#0C2DA6" transform="translate(51.75,185.6875)"/>
<path d="M0 0 C5.61 0 11.22 0 17 0 C16.71125 1.51851562 16.4225 3.03703125 16.125 4.6015625 C15.7497178 6.60932227 15.37473344 8.61713773 15 10.625 C14.71382812 12.12353516 14.71382812 12.12353516 14.421875 13.65234375 C13.52472864 18.49052593 12.72990712 23.05392418 13 28 C14.65 27.67 16.3 27.34 18 27 C20.31 18.42 22.62 9.84 25 1 C30.28 1 35.56 1 41 1 C40.71125 3.51625 40.4225 6.0325 40.125 8.625 C39.99569092 9.79603271 39.99569092 9.79603271 39.86376953 10.99072266 C39.35431539 15.23330164 38.3952976 18.94491636 37 23 C36.57865246 25.28359965 36.20340101 27.57619294 35.875 29.875 C35.58625 31.89625 35.2975 33.9175 35 36 C30.05 36 25.1 36 20 36 C19.67 35.01 19.34 34.02 19 33 C18.278125 33.28875 17.55625 33.5775 16.8125 33.875 C15.884375 34.24625 14.95625 34.6175 14 35 C13.236875 35.37125 12.47375 35.7425 11.6875 36.125 C8.05024633 37.30922212 4.74903817 37.67965019 1 37 C-3.39584376 34.6450837 -3.39584376 34.6450837 -5 32 C-6.00904602 25.13785589 -4.51031459 18.19301139 -3.0625 11.5 C-2.88009766 10.60796875 -2.69769531 9.7159375 -2.50976562 8.796875 C-1.16071429 2.32142857 -1.16071429 2.32142857 0 0 Z " fill="#0C2DA7" transform="translate(77,203)"/>
<path d="M0 0 C0.68578125 -0.01224609 1.3715625 -0.02449219 2.078125 -0.03710938 C6.43727029 -0.04958784 9.98353463 0.48154973 14 2.1875 C16.3627093 4.62642573 16.99141218 6.27862237 17.0234375 9.66796875 C16.47447183 16.71302817 16.47447183 16.71302817 14 19.1875 C11.66162109 19.41455078 11.66162109 19.41455078 8.7734375 19.3828125 C7.2265625 19.37314453 7.2265625 19.37314453 5.6484375 19.36328125 C4.56820312 19.34652344 3.48796875 19.32976562 2.375 19.3125 C1.28703125 19.30347656 0.1990625 19.29445312 -0.921875 19.28515625 C-3.61480152 19.26153409 -6.30729255 19.22859556 -9 19.1875 C-9.0270043 20.64573212 -9.04639787 22.10410675 -9.0625 23.5625 C-9.07410156 24.37460938 -9.08570313 25.18671875 -9.09765625 26.0234375 C-9.14466334 28.23687142 -9.14466334 28.23687142 -8 30.1875 C-6.12946603 30.05715506 -6.12946603 30.05715506 -4 29.1875 C-3.4328125 28.3521875 -2.865625 27.516875 -2.28125 26.65625 C0 24.1875 0 24.1875 3.234375 23.69921875 C4.39453125 23.75722656 5.5546875 23.81523437 6.75 23.875 C8.50570312 23.94267578 8.50570312 23.94267578 10.296875 24.01171875 C11.18890625 24.06972656 12.0809375 24.12773437 13 24.1875 C12.67 27.1575 12.34 30.1275 12 33.1875 C2.75893416 37.80803292 -6.83468328 38.89261548 -16.921875 36.4921875 C-20.50374483 35.09923812 -22.57329284 33.69179028 -25.0625 30.75 C-26.83196607 24.02602894 -26.98994464 17.10783669 -24.75 10.5 C-22.92820907 8.09263342 -21.71120076 7.36235366 -19 6.1875 C-18.67 5.1975 -18.34 4.2075 -18 3.1875 C-12.75225877 -0.31099415 -6.08368281 0.00571775 0 0 Z " fill="#0D2EA5" transform="translate(147,202.8125)"/>
<path d="M0 0 C5.94 0 11.88 0 18 0 C17.36564238 5.07486099 16.69922826 9.84134892 15.66015625 14.80859375 C15.40169922 16.05060547 15.14324219 17.29261719 14.87695312 18.57226562 C14.60818359 19.84779297 14.33941406 21.12332031 14.0625 22.4375 C13.79759766 23.70916016 13.53269531 24.98082031 13.25976562 26.29101562 C11.88505277 32.87121684 10.47714693 39.44203849 9 46 C14.28 46 19.56 46 25 46 C24.67 48.31 24.34 50.62 24 53 C12.45 53 0.9 53 -11 53 C-10.34 49.37 -9.68 45.74 -9 42 C-8.6817482 40.0009072 -8.3678999 38.00109649 -8.0625 36 C-7.28121486 31.23904365 -6.12678944 26.70925878 -4.79296875 22.078125 C-3.6288457 17.55926309 -2.81512395 12.98683001 -2.00219727 8.39355469 C-1.48778228 5.50374244 -0.93005478 2.79016434 0 0 Z " fill="#0D2EA6" transform="translate(295,186)"/>
<path d="M0 0 C-0.33 3.63 -0.66 7.26 -1 11 C0.65 11 2.3 11 4 11 C4 12.98 4 14.96 4 17 C1.69 17 -0.62 17 -3 17 C-3.13277344 17.97066406 -3.26554687 18.94132812 -3.40234375 19.94140625 C-4.02376738 24.29137164 -4.78794588 28.61259736 -5.5625 32.9375 C-5.70107422 33.71673828 -5.83964844 34.49597656 -5.98242188 35.29882812 C-6.32056157 37.1994064 -6.6601317 39.09973008 -7 41 C-5.35 41.33 -3.7 41.66 -2 42 C-1.957279 43.66611905 -1.95936168 45.33382885 -2 47 C-3.96120967 48.96120967 -7.52144468 48.274594 -10.1875 48.3125 C-11.50105469 48.34988281 -12.81460938 48.38726562 -14.16796875 48.42578125 C-18.60079212 47.93324532 -20.70527371 46.98694941 -24 44 C-26.49406126 35.45851064 -22.51988994 25.23464034 -20 17 C-21.98 17 -23.96 17 -26 17 C-26 15.35 -26 13.7 -26 12 C-24.39967863 11.15930585 -22.79458829 10.32768495 -21.1875 9.5 C-20.29417969 9.0359375 -19.40085938 8.571875 -18.48046875 8.09375 C-16 7 -16 7 -13 7 C-12.731875 6.401875 -12.46375 5.80375 -12.1875 5.1875 C-9.02230805 -0.64311675 -6.33630245 -0.31162143 0 0 Z " fill="#0E2FA7" transform="translate(194,192)"/>
<path d="M0 0 C2.32749345 3.49124017 2.50299316 4.89222251 2 9 C0.3125 11.4375 0.3125 11.4375 -2 13 C-5.39154295 12.83849795 -6.58296757 12.41703243 -9 10 C-9.55427252 3.01616628 -9.55427252 3.01616628 -7.875 -0.0625 C-4.97366536 -1.51316732 -3.03659258 -0.90451694 0 0 Z " fill="#95A1C9" transform="translate(241,252)"/>
<path d="M0 0 C2.97 0.33 5.94 0.66 9 1 C9.33 2.65 9.66 4.3 10 6 C9.01 6.33 8.02 6.66 7 7 C7.495 7.78375 7.99 8.5675 8.5 9.375 C10 12 10 12 10 14 C9.34 14 8.68 14 8 14 C6.98133771 12.34467377 5.98189187 10.67739862 5 9 C4.34 8.67 3.68 8.34 3 8 C3 9.98 3 11.96 3 14 C2.01 14 1.02 14 0 14 C0 9.38 0 4.76 0 0 Z " fill="#5467AC" transform="translate(155,251)"/>
<path d="M0 0 C2.16796875 0.37109375 2.16796875 0.37109375 4 1 C4.02689216 2.47906892 4.04634621 3.95827483 4.0625 5.4375 C4.07410156 6.26121094 4.08570313 7.08492187 4.09765625 7.93359375 C4 10 4 10 3 11 C1.48071962 11.07179964 -0.04167482 11.08392007 -1.5625 11.0625 C-2.38878906 11.05347656 -3.21507812 11.04445312 -4.06640625 11.03515625 C-4.70449219 11.02355469 -5.34257812 11.01195312 -6 11 C-5.72433285 7.04877078 -5.17285643 5.21957438 -2.6875 2.0625 C-1.800625 1.381875 -0.91375 0.70125 0 0 Z " fill="#E9F0FC" transform="translate(145,208)"/>
<path d="M0 0 C6 0 6 0 9 2 C8.67 3.65 8.34 5.3 8 7 C7.34 7 6.68 7 6 7 C6.99 8.98 7.98 10.96 9 13 C7.68 12.34 6.36 11.68 5 11 C5 10.01 5 9.02 5 8 C4.01 8 3.02 8 2 8 C2 9.98 2 11.96 2 14 C1.34 14 0.68 14 0 14 C0 9.38 0 4.76 0 0 Z " fill="#5265A7" transform="translate(91,251)"/>
<path d="M0 0 C2.64 0.33 5.28 0.66 8 1 C8.33 2.65 8.66 4.3 9 6 C8.01 6.33 7.02 6.66 6 7 C6.495 7.78375 6.99 8.5675 7.5 9.375 C9 12 9 12 9 14 C7.0625 13.1875 7.0625 13.1875 5 12 C4.67 11.01 4.34 10.02 4 9 C3.01 8.67 2.02 8.34 1 8 C1 9.65 1 11.3 1 13 C0.67 13 0.34 13 0 13 C0 8.71 0 4.42 0 0 Z " fill="#495EA7" transform="translate(219,251)"/>
<path d="M0 0 C2.64 0.33 5.28 0.66 8 1 C8.625 3.375 8.625 3.375 9 6 C7 8 7 8 4.375 8.125 C3.59125 8.08375 2.8075 8.0425 2 8 C2 9.98 2 11.96 2 14 C1.34 14 0.68 14 0 14 C0 9.38 0 4.76 0 0 Z " fill="#485B9E" transform="translate(263,251)"/>
<path d="M0 0 C1.18142578 -0.0012085 1.18142578 -0.0012085 2.38671875 -0.00244141 C7.39531879 0.04498852 12.22883423 0.48073464 17.1875 1.1875 C17.1875 1.5175 17.1875 1.8475 17.1875 2.1875 C15.78842407 2.217229 15.78842407 2.217229 14.36108398 2.24755859 C10.87385635 2.32603043 7.38702938 2.41273514 3.90014648 2.50488281 C2.39599377 2.54297489 0.89175608 2.57786092 -0.61254883 2.609375 C-2.78497523 2.65545895 -4.95682655 2.71337654 -7.12890625 2.7734375 C-8.43287354 2.8048584 -9.73684082 2.8362793 -11.08032227 2.86865234 C-14.88368114 3.19358115 -18.16697556 4.09493692 -21.8125 5.1875 C-24.25 4.8125 -24.25 4.8125 -25.8125 4.1875 C-18.62038187 -0.60724542 -8.40967493 0.00821257 0 0 Z " fill="#EC8D8D" transform="translate(285.8125,91.8125)"/>
<path d="M0 0 C1.32 0.33 2.64 0.66 4 1 C4.99 4.96 5.98 8.92 7 13 C6.34 13 5.68 13 5 13 C4.67 11.68 4.34 10.36 4 9 C2.35 9 0.7 9 -1 9 C-1.33 10.32 -1.66 11.64 -2 13 C-2.66 13 -3.32 13 -4 13 C-3.52511102 11.01980257 -3.04497141 9.04086365 -2.5625 7.0625 C-2.29566406 5.96035156 -2.02882812 4.85820312 -1.75390625 3.72265625 C-1 1 -1 1 0 0 Z " fill="#6174AF" transform="translate(145,252)"/>
<path d="M0 0 C0.928125 0.20625 1.85625 0.4125 2.8125 0.625 C2.8125 0.955 2.8125 1.285 2.8125 1.625 C0.5025 2.285 -1.8075 2.945 -4.1875 3.625 C-3.8575 5.935 -3.5275 8.245 -3.1875 10.625 C-1.5375 10.955 0.1125 11.285 1.8125 11.625 C1.8125 10.305 1.8125 8.985 1.8125 7.625 C0.8225 7.625 -0.1675 7.625 -1.1875 7.625 C-1.1875 6.965 -1.1875 6.305 -1.1875 5.625 C0.4625 5.625 2.1125 5.625 3.8125 5.625 C3.9375 8.5 3.9375 8.5 3.8125 11.625 C1.8125 13.625 1.8125 13.625 -0.5625 14.0625 C-3.1875 13.625 -3.1875 13.625 -5.5625 11.5625 C-7.67566666 7.74254488 -7.36091001 5.77104871 -6.1875 1.625 C-3.1875 -0.375 -3.1875 -0.375 0 0 Z " fill="#41559E" transform="translate(210.1875,251.375)"/>
<path d="M0 0 C0.66 0 1.32 0 2 0 C2 1.98 2 3.96 2 6 C3.98 6 5.96 6 8 6 C8 4.02 8 2.04 8 0 C8.66 0 9.32 0 10 0 C10 4.62 10 9.24 10 14 C9.34 14 8.68 14 8 14 C8 11.69 8 9.38 8 7 C6.02 7 4.04 7 2 7 C2 9.31 2 11.62 2 14 C1.34 14 0.68 14 0 14 C0 9.38 0 4.76 0 0 Z " fill="#475BA2" transform="translate(183,251)"/>
<path d="M0 0 C0.66 0 1.32 0 2 0 C2.33 3.63 2.66 7.26 3 11 C4.32 11.33 5.64 11.66 7 12 C7 8.37 7 4.74 7 1 C7.66 1 8.32 1 9 1 C9.05416188 2.60379341 9.09286638 4.20811406 9.125 5.8125 C9.14820313 6.70582031 9.17140625 7.59914063 9.1953125 8.51953125 C9 11 9 11 7 14 C1.125 13.125 1.125 13.125 0 12 C-0.07244053 9.98035801 -0.08377188 7.95832876 -0.0625 5.9375 C-0.05347656 4.83277344 -0.04445312 3.72804687 -0.03515625 2.58984375 C-0.02355469 1.73519531 -0.01195312 0.88054687 0 0 Z " fill="#485B9B" transform="translate(248,251)"/>
<path d="M0 0 C2.64 0 5.28 0 8 0 C8 0.66 8 1.32 8 2 C6.02 2 4.04 2 2 2 C2 3.32 2 4.64 2 6 C3.65 6 5.3 6 7 6 C7 6.33 7 6.66 7 7 C5.35 7 3.7 7 2 7 C2 8.65 2 10.3 2 12 C3.98 12 5.96 12 8 12 C8 12.33 8 12.66 8 13 C5.36 13 2.72 13 0 13 C0 8.71 0 4.42 0 0 Z " fill="#384B8D" transform="translate(130,251)"/>
<path d="M0 0 C2.64 0 5.28 0 8 0 C8 0.66 8 1.32 8 2 C6.02 2 4.04 2 2 2 C2 3.32 2 4.64 2 6 C3.65 6 5.3 6 7 6 C7 6.33 7 6.66 7 7 C5.35 7 3.7 7 2 7 C2 8.65 2 10.3 2 12 C3.65 12 5.3 12 7 12 C7 12.33 7 12.66 7 13 C4.69 13 2.38 13 0 13 C0 8.71 0 4.42 0 0 Z " fill="#3C4E90" transform="translate(105,251)"/>
<path d="M0 0 C5.61 0 11.22 0 17 0 C16.67 1.98 16.34 3.96 16 6 C15.34 6 14.68 6 14 6 C14.33 4.68 14.66 3.36 15 2 C10.38 2 5.76 2 1 2 C1 3.32 1 4.64 1 6 C0.34 6 -0.32 6 -1 6 C-0.67 4.02 -0.34 2.04 0 0 Z " fill="#3B53AA" transform="translate(77,203)"/>
<path d="M0 0 C5.28 0 10.56 0 16 0 C15.34 1.32 14.68 2.64 14 4 C14 3.34 14 2.68 14 2 C9.71 2 5.42 2 1 2 C1 3.32 1 4.64 1 6 C0.34 6 -0.32 6 -1 6 C-0.67 4.02 -0.34 2.04 0 0 Z " fill="#2C46A6" transform="translate(52,219)"/>
<path d="M0 0 C2.00720923 0.28674418 4.0085944 0.61866701 6 1 C6 1.33 6 1.66 6 2 C4.02 2 2.04 2 0 2 C0.72268235 5.2985139 0.72268235 5.2985139 4.0625 6.6875 C5.031875 7.120625 6.00125 7.55375 7 8 C7 9.32 7 10.64 7 12 C6.34 12 5.68 12 5 12 C4.6596875 11.071875 4.6596875 11.071875 4.3125 10.125 C2.62070165 7.38589791 1.00755839 6.94975528 -2 6 C-1.125 1.125 -1.125 1.125 0 0 Z " fill="#5266AA" transform="translate(119,251)"/>
<path d="M0 0 C1.794375 0.2165625 1.794375 0.2165625 3.625 0.4375 C3.625 2.0875 3.625 3.7375 3.625 5.4375 C2.965 4.1175 2.305 2.7975 1.625 1.4375 C-2.80958973 2.8312282 -5.24878374 5.04332235 -8.375 8.4375 C-9.035 8.1075 -9.695 7.7775 -10.375 7.4375 C-5.32143307 -0.06628119 -5.32143307 -0.06628119 0 0 Z " fill="#2842A2" transform="translate(190.375,191.5625)"/>
<path d="M0 0 C1.65 0 3.3 0 5 0 C5.125 2.875 5.125 2.875 5 6 C3 8 3 8 0.375 8.125 C-0.40875 8.08375 -1.1925 8.0425 -2 8 C-2 7.34 -2 6.68 -2 6 C-0.35 6 1.3 6 3 6 C3 4.68 3 3.36 3 2 C2.01 2 1.02 2 0 2 C0 1.34 0 0.68 0 0 Z " fill="#5566A5" transform="translate(209,257)"/>
<path d="M0 0 C0.96697501 3.86790003 0.979595 5.08162002 0.0625 8.75 C-0.13214844 9.54921875 -0.32679688 10.3484375 -0.52734375 11.171875 C-0.76130859 12.07679688 -0.76130859 12.07679688 -1 13 C-1.66 12.34 -2.32 11.68 -3 11 C-3.99 11 -4.98 11 -6 11 C-4.02 7.37 -2.04 3.74 0 0 Z " fill="#DAE6FA" transform="translate(262,205)"/>
<path d="M0 0 C0.33 0 0.66 0 1 0 C1 3.63 1 7.26 1 11 C0.01 11.33 -0.98 11.66 -2 12 C-1.85904936 10.3745692 -1.71207913 8.74965949 -1.5625 7.125 C-1.48128906 6.22007812 -1.40007812 5.31515625 -1.31640625 4.3828125 C-1 2 -1 2 0 0 Z " fill="#C2CEEB" transform="translate(229,203)"/>
<path d="M0 0 C1.65 0 3.3 0 5 0 C4.67 1.65 4.34 3.3 4 5 C2.68 5 1.36 5 0 5 C0 3.35 0 1.7 0 0 Z " fill="#E8F1FA" transform="translate(265,253)"/>
<path d="M0 0 C1.65 0 3.3 0 5 0 C5 1.32 5 2.64 5 4 C3.35 4 1.7 4 0 4 C0 2.68 0 1.36 0 0 Z " fill="#E9F0FD" transform="translate(220,253)"/>
<path d="M0 0 C1.65 0 3.3 0 5 0 C5 1.32 5 2.64 5 4 C3.35 4 1.7 4 0 4 C0 2.68 0 1.36 0 0 Z " fill="#ECF3FC" transform="translate(158,253)"/>
<path d="M0 0 C1.65 0 3.3 0 5 0 C5 1.32 5 2.64 5 4 C3.35 4 1.7 4 0 4 C0 2.68 0 1.36 0 0 Z " fill="#E3EBFC" transform="translate(93,253)"/>
<path d="M0 0 C-1.24420647 0.5345256 -2.49570936 1.05208611 -3.75 1.5625 C-4.44609375 1.85253906 -5.1421875 2.14257812 -5.859375 2.44140625 C-8.30012784 3.07831803 -9.6403655 2.80248831 -12 2 C-7.75950782 -0.82699479 -4.85416215 -1.37070821 0 0 Z " fill="#EF9796" transform="translate(272,94)"/>
<path d="M0 0 C2 4 2 4 1.125 7.75 C0.75375 8.8225 0.3825 9.895 0 11 C-0.66 11 -1.32 11 -2 11 C-1.34 7.37 -0.68 3.74 0 0 Z " fill="#2741A2" transform="translate(263,204)"/>
</svg>
